<?xml version="1.0" encoding="UTF-8"?>
<svg version="1.1" xmlns="http://www.w3.org/2000/svg" width="1024" height="1024">
<path d="M0 0 C337.92 0 675.84 0 1024 0 C1024 337.92 1024 675.84 1024 1024 C686.08 1024 348.16 1024 0 1024 C0 686.08 0 348.16 0 0 Z " fill="#005FDE" transform="translate(0,0)"/>
<path d="M0 0 C337.92 0 675.84 0 1024 0 C1024 337.92 1024 675.84 1024 1024 C686.08 1024 348.16 1024 0 1024 C0 686.08 0 348.16 0 0 Z M162 164 C161.33613281 164.59941406 160.67226562 165.19882813 159.98828125 165.81640625 C132.2247823 191.89044279 120.22773999 232.22893817 118.72398317 269.28273678 C118.58894313 274.55511929 118.60354777 279.82584114 118.6257782 285.0994873 C118.62302822 287.11172555 118.6189682 289.12396234 118.61373454 291.13619566 C118.60327597 296.592451 118.61119211 302.04853943 118.62248504 307.50478721 C118.63140737 313.41763196 118.62286056 319.33045674 118.61662292 325.24330139 C118.60717928 336.79768561 118.61369575 348.35200697 118.62588587 359.90638649 C118.63555581 369.30400389 118.63876638 378.70160579 118.63749123 388.09922791 C118.6374072 388.76945991 118.63732317 389.43969191 118.63723659 390.13023397 C118.63688428 392.85163854 118.63650025 395.57304311 118.63607101 398.29444767 C118.63211526 423.76888694 118.64477975 449.24329314 118.66559757 474.71772294 C118.68396392 497.29831452 118.68977888 519.87887441 118.68432617 542.45947266 C118.68397974 543.9095938 118.68363364 545.35971495 118.68328788 546.80983609 C118.68311689 547.5267847 118.68294589 548.24373331 118.68276971 548.98240763 C118.68191603 552.59224259 118.68109225 556.20207756 118.68030071 559.81191254 C118.68014363 560.52424376 118.67998655 561.23657497 118.67982471 561.97049199 C118.67582529 580.89777399 118.68132284 599.82505299 118.689812 618.75233316 C118.69071895 620.79147745 118.69162459 622.83062174 118.69252724 624.86976603 C118.69312834 626.22219638 118.69373696 627.57462674 118.69435314 628.92705708 C118.69885424 638.97830524 118.69888675 649.02954651 118.6968441 659.08079529 C118.69471324 670.52152986 118.70001335 681.96223412 118.71445765 693.40296018 C118.7216586 699.23064963 118.72581578 705.05829512 118.72121429 710.88598824 C118.71709262 716.23649814 118.7224297 721.58691789 118.73484037 726.93741423 C118.73773184 728.85704039 118.73738996 730.77667525 118.73319729 732.69629902 C118.69793526 750.47671791 119.28116455 768.642944 123.125 786.0625 C123.33745361 787.04234863 123.54990723 788.02219727 123.76879883 789.03173828 C132.302515 826.3334468 153.55413529 858.04021268 185.96240234 878.73193359 C216.55532884 897.77095351 251.13264348 903.15919619 286.59082031 903.14044189 C288.5612767 903.14302991 290.53173257 903.14604428 292.50218773 903.1494453 C297.88958644 903.15746768 303.2769718 903.1593022 308.66437578 903.16004276 C314.48616418 903.16190173 320.30794579 903.16945338 326.12973022 903.17617798 C338.84950924 903.18972923 351.5692851 903.19578137 364.28907013 903.20018864 C372.24323086 903.20295721 380.19739038 903.20719574 388.15155029 903.21169281 C410.20697953 903.22393837 432.26240801 903.23421695 454.31784058 903.2375679 C455.74228656 903.23778953 457.16673255 903.23801131 458.59117854 903.23823325 C460.01889714 903.23845389 461.44661574 903.23867437 462.87433434 903.2388947 C465.738163 903.23933723 468.60199165 903.23978435 471.46582031 903.24023438 C472.17587527 903.24034377 472.88593023 903.24045316 473.617502 903.24056586 C496.60880185 903.24419146 519.60007008 903.2600942 542.59135783 903.28342474 C566.94901679 903.3080962 591.30665772 903.32174418 615.66432953 903.32293582 C628.92194603 903.32378352 642.17952797 903.32951718 655.43713379 903.34775543 C666.73264819 903.36324044 678.02810839 903.36822784 689.32363141 903.36001733 C695.07506206 903.35613999 700.82638385 903.35689568 706.57780075 903.37107468 C764.64421425 903.50587319 820.14285938 899.21331976 864 857 C864.64324219 856.41992188 865.28648437 855.83984375 865.94921875 855.2421875 C894.33256344 828.90985373 903.51470894 785.98131919 905 749 C905.16865122 742.27404619 905.14397182 735.5458056 905.14044189 728.81822205 C905.14303146 726.82027634 905.14604624 724.82233115 905.1494453 722.82438666 C905.1574488 717.37517447 905.15930111 711.92597549 905.16004276 706.47675812 C905.16190494 700.58356194 905.16945788 694.69037244 905.17617798 688.79718018 C905.19041775 675.26145211 905.19628091 661.72572589 905.20086992 648.18999173 C905.20321299 641.4895304 905.20681633 634.78906992 905.2105653 628.08860925 C905.22339254 605.11545222 905.23411361 582.14229563 905.2375679 559.16913509 C905.23778953 557.72979813 905.23801131 556.29046117 905.23823325 554.8511242 C905.23845389 553.40849328 905.23867437 551.96586236 905.2388947 550.52323145 C905.23933723 547.6295013 905.23978435 544.73577116 905.24023438 541.84204102 C905.24034377 541.12457595 905.24045316 540.40711088 905.24056586 539.66790445 C905.24419525 516.41220621 905.26011509 493.15653917 905.28342474 469.90085288 C905.30807195 445.2653313 905.32174294 420.62982753 905.32293582 395.99429327 C905.32310725 393.28534003 905.32332267 390.57638679 905.32357025 387.86743355 C905.3236539 386.86703368 905.3236539 386.86703368 905.32373925 385.84642371 C905.32481449 375.81852477 905.33413827 365.79065955 905.34775543 355.7627697 C905.36320786 344.34382204 905.36824654 332.92492792 905.36001733 321.50597178 C905.35612939 315.68843037 905.3569491 309.87099664 905.37107468 304.0534687 C905.38392516 298.71190378 905.38251967 293.37052621 905.37048396 288.02896113 C905.36854612 286.11248652 905.37151504 284.19599812 905.38032833 282.2795428 C905.57042527 238.09035568 894.32766894 196.45640657 862.8125 164.375 C827.49954791 129.50523255 779.65711449 120.63630994 731.77952576 120.73930359 C729.7419771 120.73627345 727.70442957 120.73237971 725.66688401 120.72771102 C720.13613665 120.71753376 714.60545486 120.71958623 709.07470238 120.72389162 C703.0834861 120.72637765 697.09228484 120.71732173 691.10107422 120.70985413 C679.39149806 120.69715819 667.68194009 120.6953012 655.97235899 120.69765439 C646.4497969 120.69949421 636.92724151 120.69771306 627.40468025 120.69342995 C626.03174174 120.69282752 624.65880322 120.69222632 623.2858647 120.69162634 C621.21647643 120.690719 619.14708816 120.68981032 617.0776999 120.68889399 C597.8663033 120.68047816 578.6549092 120.67611945 559.44351101 120.68030071 C558.72094284 120.68045709 557.99837467 120.68061346 557.25391049 120.68077458 C553.59245709 120.68158024 549.9310037 120.68242602 546.26955032 120.68328788 C545.17897136 120.68354451 545.17897136 120.68354451 544.06636051 120.68380633 C542.59608967 120.68415299 541.12581883 120.68450152 539.655548 120.68485192 C516.77303564 120.69021027 493.89056181 120.68226982 471.00805664 120.66381836 C445.24348539 120.64306678 419.47893799 120.63238134 393.71435791 120.63639385 C390.96340661 120.63678914 388.2124553 120.63715069 385.46150398 120.63749123 C384.44562254 120.63762732 384.44562254 120.63762732 383.40921824 120.63776617 C373.22263052 120.63892808 363.03606706 120.63231521 352.8494854 120.62167931 C341.25715044 120.60958729 329.66486764 120.60839086 318.07253151 120.62046947 C312.16608796 120.62633849 306.25974805 120.62751242 300.35331154 120.61546707 C294.93313572 120.60454231 289.51314927 120.60778922 284.09298206 120.62172876 C282.14576889 120.62435758 280.19854055 120.62206718 278.25134235 120.61399289 C234.5074824 120.44537837 194.10633958 133.75331211 162 164 Z " fill="#FDFDFD" transform="translate(0,0)"/>
<path d="M0 0 C0.66569504 -0.00511093 1.33139008 -0.01022186 2.01725769 -0.01548767 C4.20625935 -0.02932844 6.3949443 -0.0284314 8.58398438 -0.02612305 C10.11185828 -0.03001247 11.6397311 -0.03434765 13.16760254 -0.03910828 C16.36518871 -0.0465582 19.56266443 -0.04628775 22.76025391 -0.04101562 C26.85257475 -0.03521669 30.94444364 -0.05216783 35.03668976 -0.0753603 C38.19031404 -0.09010826 41.34382965 -0.09096801 44.4974823 -0.08785057 C46.00612789 -0.08836306 47.51477969 -0.09358717 49.02339172 -0.10366249 C51.1343813 -0.11603338 53.24449268 -0.10923282 55.35546875 -0.09765625 C56.55506226 -0.09828568 57.75465576 -0.0989151 58.99060059 -0.0995636 C62.50518614 0.31310641 64.3707225 1.15463408 67.17773438 3.2746582 C68.67089844 5.83251953 68.67089844 5.83251953 69.94335938 9.04418945 C70.18749573 9.64955032 70.43163208 10.25491119 70.6831665 10.87861633 C71.53287657 13.00388836 72.35553581 15.13860005 73.17773438 17.2746582 C73.83284648 18.94460839 74.48847139 20.61435747 75.14453125 22.28393555 C77.44151175 28.16308726 79.68818872 34.06092991 81.92773438 39.9621582 C82.33791809 41.04080139 82.74810181 42.11944458 83.17071533 43.23077393 C91.51588122 65.20762341 99.35819836 87.34972914 107.11299133 109.5402832 C110.30387671 118.66113541 113.569222 127.75385411 116.86523438 136.8371582 C117.91114495 139.72245257 118.95665003 142.60789371 120.00195312 145.4934082 C120.38981995 146.5639167 120.38981995 146.5639167 120.78552246 147.65605164 C126.64457591 163.84001946 132.40053426 180.06134606 138.17773438 196.2746582 C138.58393005 197.41441101 138.99012573 198.55416382 139.40863037 199.72845459 C158.23517141 252.55446217 158.23517141 252.55446217 166.17016602 275.07980347 C174.91363481 299.89904549 183.72087702 324.69656615 192.61523438 349.4621582 C193.15410278 350.96564819 193.15410278 350.96564819 193.70385742 352.49951172 C194.02394775 353.38823975 194.34403809 354.27696777 194.67382812 355.19262695 C194.94380615 355.94310303 195.21378418 356.6935791 195.49194336 357.46679688 C196.16579532 359.33486919 196.16579532 359.33486919 197.17773438 361.2746582 C197.45117188 363.26293945 197.45117188 363.26293945 197.55273438 365.5871582 C197.60171875 366.34641602 197.65070313 367.10567383 197.70117188 367.88793945 C196.90770398 371.50591621 194.98123677 372.9347132 192.17773438 375.2746582 C189.18041992 375.90957642 189.18041992 375.90957642 185.81445312 375.92163086 C184.54964111 375.93739166 183.2848291 375.95315247 181.98168945 375.96939087 C180.60952886 375.96044076 179.23737626 375.95018569 177.86523438 375.9387207 C176.44945866 375.94209162 175.03368577 375.94694654 173.61791992 375.95321655 C170.65548053 375.96057515 167.69379664 375.94991678 164.73144531 375.92651367 C160.94135911 375.89802443 157.15304315 375.91443414 153.36302185 375.94437599 C150.44090529 375.96247761 147.5192058 375.95667828 144.59707642 375.94373703 C143.20008126 375.94041083 141.80304776 375.94446252 140.40609741 375.9561348 C138.45107791 375.96888668 136.49592495 375.94599095 134.54101562 375.92163086 C132.87486206 375.91566391 132.87486206 375.91566391 131.17504883 375.90957642 C127.23230251 375.07438829 125.73348405 373.31234207 123.17773438 370.2746582 C122.04516602 368.30200195 122.04516602 368.30200195 121.27539062 366.2121582 C120.95328613 365.33817383 120.63118164 364.46418945 120.29931641 363.5637207 C117.97772224 356.7555978 115.72699813 349.92652932 113.52020264 343.08035278 C112.60238875 340.23483262 111.6790124 337.39116752 110.75439453 334.54785156 C108.04434315 326.20411354 105.35024525 317.85604156 102.72554016 309.48501587 C101.73820015 306.33709599 100.74288898 303.19172005 99.74734497 300.04638672 C99.06572913 297.87848839 98.39786121 295.70666016 97.73022461 293.53442383 C97.31497845 292.21975317 96.89908329 290.90528726 96.48242188 289.59106445 C96.13163574 288.46128174 95.78084961 287.33149902 95.41943359 286.16748047 C94.04977839 282.97655547 92.84891597 281.47002237 90.17773438 279.2746582 C87.67348938 278.67821557 87.67348938 278.67821557 84.90222168 278.76672363 C83.8339061 278.75544434 82.76559052 278.74416504 81.66490173 278.73254395 C80.49802322 278.74064087 79.33114471 278.74873779 78.12890625 278.75708008 C76.89604385 278.7500708 75.66318146 278.74306152 74.39295959 278.73583984 C71.01459157 278.72124992 67.6372033 278.72467041 64.25889015 278.73735619 C60.72266961 278.74748742 57.18649076 278.73809018 53.65026855 278.73181152 C47.71191903 278.72453543 41.77376853 278.73412164 35.83544922 278.75317383 C28.97112119 278.77494273 22.10726838 278.76789131 15.24295187 278.74586821 C9.34812399 278.72771294 3.45343913 278.72515643 -2.44140768 278.73562288 C-5.96159244 278.74185721 -9.48155386 278.74269539 -13.00172424 278.72947693 C-16.9258164 278.71577085 -20.84937678 278.73477035 -24.7734375 278.75708008 C-26.52375526 278.74493469 -26.52375526 278.74493469 -28.30943298 278.73254395 C-29.91190636 278.74946289 -29.91190636 278.74946289 -31.54675293 278.76672363 C-32.93824177 278.76898579 -32.93824177 278.76898579 -34.35784149 278.77129364 C-37.57769892 279.42895727 -38.76168162 280.77320033 -40.82226562 283.2746582 C-41.88086932 285.43519351 -41.88086932 285.43519351 -42.54101562 287.83325195 C-42.8271875 288.75750977 -43.11335938 289.68176758 -43.40820312 290.6340332 C-43.70984375 291.64981445 -44.01148438 292.6655957 -44.32226562 293.7121582 C-45.01875892 295.97171202 -45.71677302 298.23079742 -46.41601562 300.48950195 C-46.98642578 302.34744385 -46.98642578 302.34744385 -47.56835938 304.24291992 C-50.14683827 312.58304187 -52.89451052 320.87068714 -55.60403442 329.16891479 C-58.19380485 337.10339026 -60.7694909 345.03769305 -63.19335938 353.0246582 C-63.54720703 354.17772461 -63.90105469 355.33079102 -64.265625 356.51879883 C-64.90648913 358.61766033 -65.53505854 360.72033475 -66.1484375 362.82739258 C-66.43138672 363.74842773 -66.71433594 364.66946289 -67.00585938 365.6184082 C-67.23845459 366.4040918 -67.4710498 367.18977539 -67.71069336 367.99926758 C-69.41972832 371.49766551 -70.54611596 373.01082821 -73.82226562 375.2746582 C-78.44371585 376.02435907 -83.02449152 375.95068808 -87.69726562 375.90356445 C-89.06819853 375.90439378 -90.43913133 375.90685557 -91.81005859 375.91087341 C-94.67836564 375.91372693 -97.54588988 375.89907612 -100.4140625 375.87158203 C-104.08291269 375.83749815 -107.75036382 375.84352065 -111.41928101 375.86224461 C-114.24873427 375.87283475 -117.07786435 375.86385889 -119.9072876 375.84885979 C-121.9152293 375.84118687 -123.92321027 375.84851905 -125.93115234 375.85609436 C-127.15592285 375.84025803 -128.38069336 375.82442169 -129.64257812 375.80810547 C-130.71781738 375.80190689 -131.79305664 375.79570831 -132.90087891 375.7893219 C-136.51866098 375.15197352 -138.19931583 373.79563178 -140.82226562 371.2746582 C-143.05513477 366.80891991 -142.22673156 360.98580563 -140.8034668 356.33251953 C-140.33854716 355.00208999 -139.8584762 353.67688093 -139.36523438 352.35668945 C-139.10694351 351.6306955 -138.84865265 350.90470154 -138.58253479 350.15670776 C-137.73845977 347.7950781 -136.87438889 345.4413337 -136.00976562 343.0871582 C-135.40798739 341.416119 -134.80741833 339.74464389 -134.20800781 338.07275391 C-132.4318643 333.13300531 -130.63020097 328.20284444 -128.82226562 323.2746582 C-128.34840017 321.98008743 -127.87459914 320.68549306 -127.40087891 319.39086914 C-125.69174685 314.72608062 -123.97889636 310.06271066 -122.25708008 305.40258789 C-117.96360594 293.75180188 -113.82992141 282.04578907 -109.69726562 270.3371582 C-98.84853844 239.61147083 -87.72185751 208.98796373 -76.58312988 178.3664856 C-75.57890964 175.60542562 -74.57503785 172.84423921 -73.57128906 170.08300781 C-72.9166675 168.28230764 -72.26204511 166.48160777 -71.60742188 164.6809082 C-71.28832855 163.80306168 -70.96923523 162.92521515 -70.64047241 162.02076721 C-69.10997427 157.81139572 -67.57761577 153.60272182 -66.04052734 149.39575195 C-60.11677671 133.182565 -54.31167254 116.95252202 -48.92443848 100.55252075 C-43.87946273 85.21172884 -38.46553093 70.00427404 -33.03710938 54.7956543 C-29.85514526 45.87470024 -26.68158982 36.95537432 -23.68554688 27.9699707 C-23.45520248 27.28314209 -23.22485809 26.59631348 -22.98753357 25.88867188 C-21.95953534 22.8214904 -20.94407718 19.7514213 -19.95288086 16.67211914 C-15.82760018 4.30488939 -15.82760018 4.30488939 -9.58947754 1.14289856 C-6.27553718 0.1031167 -3.47417345 0.01334358 0 0 Z " fill="#FDFEFE" transform="translate(484.822265625,298.725341796875)"/>
<path d="M0 0 C7.19141601 4.37954747 11.8617349 10.10360003 14.375 18.0625 C15.10222102 18.05789104 15.82944204 18.05328207 16.57870007 18.04853344 C34.27222038 17.9381198 51.9656532 17.85537545 69.65944195 17.80343914 C78.21603961 17.77765561 86.77240734 17.74250245 95.32885742 17.68530273 C102.78653247 17.63547207 110.24404099 17.60321006 117.70187789 17.59205753 C121.65097117 17.5855381 125.59958806 17.57021325 129.54852867 17.53384972 C133.26601531 17.49989506 136.98282964 17.48944563 140.70045662 17.49696159 C142.71418967 17.49493154 144.72784959 17.4680335 146.74139404 17.44039917 C156.58085971 17.49667841 156.58085971 17.49667841 159.63923645 20.48078918 C160.49843941 21.75873604 160.49843941 21.75873604 161.375 23.0625 C161.82875 23.68125 162.2825 24.3 162.75 24.9375 C163.74258859 28.31230121 163.26382633 30.68495993 162.375 34.0625 C159.72067055 37.29073852 157.24515156 39.51077652 153.375 41.0625 C150.72316742 41.30745316 150.72316742 41.30745316 147.6439209 41.30059814 C145.88999275 41.30433693 145.88999275 41.30433693 144.10063171 41.30815125 C142.82154434 41.30088516 141.54245697 41.29361908 140.22460938 41.28613281 C138.86106876 41.28560845 137.4975275 41.28604452 136.13398743 41.28736877 C133.19999543 41.2887016 130.26608715 41.28429656 127.33210754 41.27576447 C122.6931538 41.2633819 118.0543556 41.27033139 113.41540527 41.28118896 C100.22497384 41.30965602 87.03467658 41.32205082 73.84423828 41.29248047 C66.55745173 41.27630697 59.27100451 41.28140559 51.98425341 41.31027675 C48.12855433 41.32458531 44.27356146 41.32755981 40.41789246 41.30405426 C36.79290134 41.28195725 33.16900846 41.28740022 29.54405785 41.31403923 C27.57913032 41.32109606 25.61416677 41.29833352 23.64936829 41.2747345 C20.44342884 41.31249399 17.50898957 41.38723668 14.375 42.0625 C11.57853701 44.75702296 11.57853701 44.75702296 10.375 48.0625 C6.83799296 51.87158451 3.06675531 55.71662234 -1.625 58.0625 C-1.62738835 58.71664698 -1.62977671 59.37079395 -1.63223743 60.04476357 C-1.69140155 75.96962708 -1.76696055 91.89431594 -1.86071491 107.81900978 C-1.90565966 115.52011369 -1.94507734 123.22117148 -1.97143555 130.92236328 C-1.99442637 137.63557976 -2.02783642 144.34865017 -2.07370156 151.06175077 C-2.09761932 154.61553633 -2.1163575 158.16917735 -2.12261391 161.72304153 C-2.12979757 165.6926381 -2.16024528 169.66187275 -2.19262695 173.63134766 C-2.19119186 174.80667053 -2.18975677 175.98199341 -2.1882782 177.19293213 C-2.27008784 184.27409836 -2.87548855 188.98951662 -7.75 194.4375 C-11.75201242 196.69950702 -15.12690105 196.8788519 -19.625 196.0625 C-23.22945317 193.9151662 -25.07237511 191.91452316 -26.625 188.0625 C-26.86157322 185.55960369 -26.86157322 185.55960369 -26.84291077 182.69328308 C-26.84106781 181.60406052 -26.83922485 180.51483795 -26.83732605 179.39260864 C-26.82534683 178.20239105 -26.81336761 177.01217346 -26.80102539 175.78588867 C-26.79425432 173.85587839 -26.78749717 171.92586802 -26.78126323 169.99585593 C-26.77302954 167.9232278 -26.76021246 165.85066575 -26.74656868 163.77806664 C-26.71983807 159.45335726 -26.71570757 155.12881278 -26.71665955 150.80403137 C-26.71673524 149.32203579 -26.71680096 147.84004021 -26.71685696 146.35804462 C-26.71690664 145.61593349 -26.71695633 144.87382236 -26.71700752 144.10922301 C-26.71607242 134.04354898 -26.69728708 123.97829521 -26.62866211 113.9128418 C-26.58252229 107.11926483 -26.56837753 100.32643018 -26.59051126 93.53272229 C-26.60088443 89.93977421 -26.59482956 86.34853014 -26.54936409 82.75581932 C-26.49880962 78.74531769 -26.51825942 74.73803791 -26.54321289 70.72729492 C-26.51706406 69.54315002 -26.49091522 68.35900513 -26.463974 67.13897705 C-26.50789014 60.96570376 -26.50789014 60.96570376 -29.58450127 55.84087563 C-31.8565736 54.07437606 -34.18441597 52.58191909 -36.625 51.0625 C-43.05362081 45.18896714 -46.65543307 37.29644494 -47.125 28.5625 C-46.66087617 19.91432603 -42.8548455 11.09478169 -36.625 5.0625 C-26.30662785 -2.31006544 -12.06837803 -5.49592802 0 0 Z " fill="#FBFCFE" transform="translate(267.625,228.9375)"/>
<path d="M0 0 C7.94104162 4.57723482 13.82881388 11.29700613 16.62890625 20.07421875 C18.30096882 29.01975348 17.3517564 37.74581022 12.578125 45.5078125 C8.24472643 51.54038592 8.24472643 51.54038592 4.86262989 53.26201725 C1.18035156 55.19618497 -1.49256694 56.64571964 -2.8061924 60.73370171 C-3.1023504 64.01401667 -3.11335744 67.19121433 -3.03051758 70.48413086 C-3.03516022 71.72222 -3.03980286 72.96030914 -3.04458618 74.23591614 C-3.04827642 76.92276349 -3.03574248 79.60359778 -2.99497414 82.28956413 C-2.93068787 86.53912844 -2.9299234 90.7872897 -2.93742371 95.0372467 C-2.941813 101.76170641 -2.90391214 108.48515302 -2.84785527 115.20935589 C-2.74821805 127.24380866 -2.70645341 139.27839915 -2.70111483 151.31324679 C-2.69738883 155.53329316 -2.67070861 159.75238349 -2.62503684 163.97217739 C-2.59415871 167.21958348 -2.58818139 170.46707395 -2.57739258 173.71459961 C-2.55822281 174.87690094 -2.53905304 176.03920227 -2.51930237 177.23672485 C-2.52480863 183.78541182 -3.02137008 187.86287237 -6.98046875 193.1640625 C-9.72092301 195.39969624 -11.4291423 196.08195005 -14.91796875 196.6015625 C-18.90407656 196.03211853 -20.91154038 194.75560201 -23.98046875 192.1640625 C-27.90099189 186.49329806 -27.39033429 180.67957796 -27.33691406 174.0559082 C-27.33895844 172.8406546 -27.34100281 171.625401 -27.34310913 170.37332153 C-27.34559622 167.05311932 -27.33474628 163.73348107 -27.31758213 160.41335702 C-27.3025058 156.93542528 -27.30371926 153.45749691 -27.30291748 149.97953796 C-27.2992303 144.14312435 -27.28428801 138.30682872 -27.26171875 132.47045898 C-27.23280497 124.97812837 -27.22249065 117.4858925 -27.21803665 109.99351215 C-27.21405774 103.54899873 -27.20155939 97.1045059 -27.18768978 90.66000724 C-27.18359232 88.58912245 -27.18066601 86.5182384 -27.17789459 84.44735146 C-27.17209297 80.5928822 -27.15741726 76.73847497 -27.14160156 72.8840332 C-27.1404837 71.73540298 -27.13936584 70.58677277 -27.13821411 69.40333557 C-27.13250397 68.35611328 -27.12679382 67.30889099 -27.12091064 66.22993469 C-27.11793598 65.3187 -27.11496132 64.40746531 -27.11189651 63.46861744 C-26.98046875 61.1640625 -26.98046875 61.1640625 -25.98046875 58.1640625 C-26.71136719 57.91011719 -27.44226563 57.65617187 -28.1953125 57.39453125 C-31.15642463 56.08632603 -33.12507414 54.61692486 -35.54296875 52.4765625 C-36.28675781 51.83332031 -37.03054688 51.19007813 -37.796875 50.52734375 C-39.98046875 48.1640625 -39.98046875 48.1640625 -41.27308655 44.56680298 C-42.26251665 42.61377998 -42.26251665 42.61377998 -43.98046875 41.1640625 C-48.45330901 40.07904635 -52.90118119 40.27446566 -57.48217773 40.35693359 C-58.88350694 40.3572312 -60.28483984 40.35438035 -61.68615723 40.34861755 C-64.70241793 40.34275838 -67.71749417 40.35875528 -70.73357964 40.39158249 C-75.50317774 40.44293994 -80.27194415 40.44324209 -85.04176331 40.43618774 C-94.30631736 40.42949378 -103.57026756 40.47469553 -112.83465576 40.52542877 C-124.62341528 40.58764529 -136.41206485 40.6269811 -148.20099503 40.61884558 C-152.94178091 40.61729514 -157.68153522 40.64144471 -162.42210567 40.68572593 C-165.37235568 40.70855533 -168.32237158 40.71092247 -171.27269745 40.70794868 C-173.29118447 40.71227757 -175.30956884 40.74170018 -177.32783508 40.77186584 C-187.1902884 40.7295163 -187.1902884 40.7295163 -190.26991272 37.75479126 C-193.02629324 33.58010528 -193.80451665 30.14538578 -192.98046875 25.1640625 C-190.70956585 20.8484047 -187.56938586 18.61359983 -182.98046875 17.1640625 C-180.17879772 16.91796684 -180.17879772 16.91796684 -177.06425476 16.92355347 C-175.28697243 16.91942947 -175.28697243 16.91942947 -173.4737854 16.91522217 C-171.53709488 16.926008 -171.53709488 16.926008 -169.5612793 16.93701172 C-168.18124907 16.93757616 -166.80121824 16.93725863 -165.42118835 16.93612671 C-161.68188145 16.93555348 -157.94270317 16.94730288 -154.20342612 16.96127462 C-150.29299813 16.97378701 -146.38256711 16.97495288 -142.47212219 16.97732544 C-135.07032314 16.98353871 -127.66858325 16.99994747 -120.26681024 17.02002442 C-111.83880976 17.04238816 -103.41080644 17.05337805 -94.98278368 17.06341529 C-77.64864449 17.08431383 -60.31456288 17.11948684 -42.98046875 17.1640625 C-42.69171875 16.2359375 -42.40296875 15.3078125 -42.10546875 14.3515625 C-39.29976163 6.402059 -33.16265772 2.90123541 -25.98046875 -0.8359375 C-18.53920686 -3.31635813 -7.30152697 -2.98762289 0 0 Z " fill="#FBFCFE" transform="translate(785.98046875,228.8359375)"/>
<path d="M0 0 C3.40744542 2.55558406 5.39125698 5.09499402 7 9 C7.23657322 11.45883751 7.23657322 11.45883751 7.21791077 14.26205444 C7.21606781 15.32747971 7.21422485 16.39290497 7.21232605 17.49061584 C7.19435722 19.23622047 7.19435722 19.23622047 7.17602539 21.01708984 C7.16940887 22.86156456 7.16940887 22.86156456 7.16265869 24.74330139 C7.1528064 27.41543527 7.13955986 30.08734016 7.12156868 32.75941086 C7.09483988 36.98723209 7.09070751 41.21488463 7.09165955 45.44277954 C7.09173524 46.89143181 7.09180096 48.34008408 7.09185696 49.78873634 C7.09193148 50.87681772 7.09193148 50.87681772 7.09200752 51.98688054 C7.09107226 61.82708421 7.07225253 71.66685775 7.00366211 81.50683594 C6.9575442 88.14842076 6.9433662 94.78924646 6.96551126 101.43096507 C6.97589077 104.94397115 6.96979351 108.45523462 6.92436409 111.9679985 C6.87387415 115.88728611 6.89324514 119.80455181 6.91821289 123.72412109 C6.89206406 124.88380905 6.86591522 126.04349701 6.838974 127.23832703 C6.83687474 133.19032112 6.83687474 133.19032112 9.95950127 137.97456741 C12.30802397 139.5903114 12.30802397 139.5903114 14.74579525 140.80169106 C20.74029054 143.98829481 24.05287086 149.99052784 26.30859375 156.19140625 C28.28855709 164.23430818 28.14074454 173.65899548 24 181 C18.76631438 188.04092637 12.93227626 194.32236436 4 196 C-7.37275084 196.82753904 -16.26396406 196.75583443 -25.30859375 189.02734375 C-28.60786139 185.88098334 -31.02747405 183.11245988 -33 179 C-33.72722102 178.99761165 -34.45444204 178.99522329 -35.20370007 178.99276257 C-52.8973794 178.9336304 -70.59091243 178.85809182 -88.28444195 178.76428509 C-96.84090125 178.71931663 -105.39731883 178.6799044 -113.95385742 178.65356445 C-121.41160975 178.63059285 -128.86923017 178.59720427 -136.32687789 178.55129844 C-140.27578141 178.52735482 -144.22455421 178.50863355 -148.17352867 178.50238609 C-151.89099078 178.49634032 -155.60811833 178.47635923 -159.32545662 178.44572449 C-161.33906285 178.43274782 -163.35274721 178.43451559 -165.36639404 178.4367218 C-166.56807724 178.42418365 -167.76976044 178.41164551 -169.00785828 178.39872742 C-170.57168007 178.39181397 -170.57168007 178.39181397 -172.16709423 178.38476086 C-175.46748498 177.93650692 -177.33163027 176.96764395 -180 175 C-182.61525329 170.94184834 -183.70124748 167.80855413 -183 163 C-180.86168417 159.02884203 -179.22670955 156.60693145 -175 155 C-172.30575943 154.73828697 -172.30575943 154.73828697 -169.16607666 154.7215271 C-167.97418228 154.71036362 -166.7822879 154.69920013 -165.55427551 154.68769836 C-164.25020248 154.68553818 -162.94612946 154.68337799 -161.60253906 154.68115234 C-160.21279823 154.67185229 -158.82306298 154.6616835 -157.43333435 154.65071106 C-153.66304214 154.62340562 -149.89278731 154.60826008 -146.12242222 154.59528303 C-142.1812416 154.57965486 -138.24013734 154.55286364 -134.29901123 154.5272522 C-126.83702884 154.48045884 -119.3750321 154.44371744 -111.91297793 154.41057932 C-103.41723183 154.37236187 -94.92156239 154.32295072 -86.42588091 154.27259517 C-68.95064273 154.16926703 -51.47536018 154.08000951 -34 154 C-33.73699097 153.45145859 -33.47398193 152.90291718 -33.20300293 152.3377533 C-32.85177368 151.61777664 -32.50054443 150.89779999 -32.13867188 150.15600586 C-31.79316284 149.44246445 -31.44765381 148.72892303 -31.0916748 147.99375916 C-29.6260289 145.31700511 -27.81480191 143.53245985 -25.5 141.5625 C-24.7471875 140.90378906 -23.994375 140.24507812 -23.21875 139.56640625 C-21.02850553 138.02012451 -19.5714232 137.55550026 -17 137 C-17.00368717 136.34069929 -17.00737434 135.68139858 -17.01117325 135.00211906 C-17.09955038 118.95222507 -17.16572219 102.90241583 -17.20724869 86.85233879 C-17.22786492 79.09059785 -17.25596736 71.32901943 -17.30175781 63.56738281 C-17.34165457 56.80151482 -17.36743965 50.03576454 -17.37635398 43.26978219 C-17.381564 39.68792466 -17.39378928 36.10640388 -17.42292023 32.52465439 C-17.45519413 28.52393471 -17.45595761 24.52379868 -17.45410156 20.52294922 C-17.46848267 19.3382756 -17.48286377 18.15360199 -17.49768066 16.93302917 C-17.4661933 10.67024507 -17.32899215 6.69629872 -13 2 C-8.76668568 -0.82220955 -4.97131405 -0.78619823 0 0 Z " fill="#FEFEFE" transform="translate(776,599)"/>
<path d="M0 0 C4.02348748 3.48702248 5.55806399 6.88573092 6.07823753 12.10261345 C6.18177404 15.36919937 6.18340134 18.62227087 6.15307617 21.89038086 C6.15373329 23.74996933 6.15373329 23.74996933 6.15440369 25.64712524 C6.15267771 29.02905255 6.13768281 32.41042341 6.11668181 35.7922523 C6.0978664 39.33296602 6.09616076 42.87368797 6.09260559 46.41444397 C6.08329935 53.11144116 6.05870498 59.80829059 6.02855712 66.50522286 C5.9949687 74.13278869 5.97851597 81.76036176 5.96347082 89.3879832 C5.93215402 105.0712409 5.8794214 120.75435136 5.8125 136.4375 C6.59496094 136.73769043 7.37742187 137.03788086 8.18359375 137.34716797 C10.87292734 138.46256208 12.6220072 139.66348406 14.8125 141.5625 C15.451875 142.10132813 16.09125 142.64015625 16.75 143.1953125 C18.8125 145.4375 18.8125 145.4375 19.63980293 147.37465477 C20.77337426 149.88343755 21.80874171 151.53411105 23.8125 153.4375 C28.22662871 154.64117095 32.57128234 154.44476867 37.12060547 154.34228516 C38.48927697 154.34006716 39.85795837 154.34145686 41.22662354 154.34617615 C44.16992803 154.34887258 47.11161274 154.32665199 50.05462265 154.28514481 C54.71145183 154.22016741 59.36723084 154.21407064 64.02444458 154.21640015 C73.07213992 154.21293898 82.11895912 154.15066806 91.16635132 154.08133698 C102.67505488 153.99534873 114.18357544 153.93282641 125.69261849 153.92929876 C130.31849943 153.92587407 134.94284192 153.89196083 139.56834769 153.83398843 C142.45096186 153.8036243 145.33325342 153.79801705 148.21601105 153.79879951 C150.18169274 153.79173365 152.14719471 153.75456345 154.11251831 153.71638489 C160.6465717 153.744621 164.86829097 154.06542049 169.64224434 158.7570858 C171.77543114 161.82020911 172.31027171 164.77009376 171.8125 168.4375 C169.43693837 173.47369065 166.98080075 175.54085563 161.8125 177.4375 C157.36261136 177.85756934 152.93304542 177.79221462 148.46679688 177.74291992 C147.10620974 177.73883577 145.74561765 177.73618795 144.38502502 177.73486328 C141.46301417 177.72966006 138.54122186 177.71572539 135.61927795 177.695364 C130.99641569 177.66461035 126.37380279 177.66204201 121.75085449 177.66487122 C108.60798563 177.66918393 95.46542455 177.64570748 82.32275391 177.5715332 C75.05788913 177.53077197 67.79354983 177.51856771 60.52858973 177.53777009 C55.93493559 177.5483218 51.34323878 177.52381762 46.7498703 177.47339761 C43.89002343 177.45047309 41.03102467 177.46106803 38.17118645 177.48111725 C36.2184895 177.48498792 34.2658397 177.44912528 32.31349182 177.41200256 C26.05778422 177.33823223 26.05778422 177.33823223 20.75511169 180.18554115 C19.24170841 182.20324012 18.04284589 184.2409071 16.8125 186.4375 C9.94562886 193.30437114 2.41238851 195.83317199 -7.1875 196 C-16.56781365 195.89189161 -22.72230024 192.95141919 -29.5625 186.6875 C-36.19959004 179.41894593 -37.86520904 172.65992219 -37.796875 162.89135742 C-37.37788403 153.75110964 -33.84845357 146.53839249 -27.125 140.3125 C-24.30613567 137.99515141 -21.57784251 136.74955313 -18.1875 135.4375 C-18.19026538 134.78243123 -18.19303076 134.12736246 -18.19587994 133.45244312 C-18.26214004 117.51137331 -18.31178067 101.57035142 -18.34293652 85.62917805 C-18.35840382 77.92013414 -18.37949066 70.21118217 -18.41381836 62.50219727 C-18.44372498 55.78285113 -18.463076 49.06357158 -18.46976548 42.34416074 C-18.47367563 38.78643278 -18.48286197 35.2288953 -18.50469017 31.67122841 C-18.52886317 27.69915834 -18.52946917 23.72727443 -18.52807617 19.75512695 C-18.538862 18.5762088 -18.54964783 17.39729065 -18.5607605 16.18264771 C-18.55663651 15.09876266 -18.55251251 14.01487762 -18.54826355 12.89814758 C-18.55102893 11.95884053 -18.55379431 11.01953348 -18.55664349 10.05176258 C-17.9389069 5.67697144 -15.5547155 2.24351292 -12.1875 -0.5625 C-7.49661794 -2.12612735 -4.49354391 -2.2027176 0 0 Z " fill="#FEFEFE" transform="translate(259.1875,599.5625)"/>
<path d="M0 0 C4.1124463 2.09360902 6.2580016 3.76943247 8 8 C8.66786166 11.14426906 8.60963193 13.84634666 8 17 C6.69348049 18.93021393 6.69348049 18.93021393 4.96202087 20.79260254 C4.32406523 21.48412918 3.68610958 22.17565582 3.02882195 22.88813782 C-0.26534158 26.31713236 -3.58390408 29.7146399 -6.95483398 33.06835938 C-8.09753502 34.21127945 -8.09753502 34.21127945 -9.26332092 35.37728882 C-11.7552128 37.86848996 -14.25061647 40.35614087 -16.74609375 42.84375 C-18.48508723 44.58087631 -20.2238585 46.31822509 -21.9624176 48.05578613 C-26.51889525 52.60846211 -31.078369 57.15812581 -35.63848877 61.70715332 C-40.2992292 66.35762892 -44.95710836 71.01096844 -49.61523438 75.6640625 C-58.74070292 84.7788352 -67.8692446 93.8905236 -77 103 C-75.65940965 105.78139134 -74.43340653 107.80331915 -72.20703125 109.953125 C-71.65853516 110.49066406 -71.11003906 111.02820313 -70.54492188 111.58203125 C-69.68737305 112.40767578 -69.68737305 112.40767578 -68.8125 113.25 C-65.30824312 116.64385439 -61.90825887 120.05374458 -58.73510742 123.76269531 C-55.24322409 127.77544378 -51.56649867 131.54666479 -47.78125 135.28125 C-47.11967896 135.93903442 -46.45810791 136.59681885 -45.77648926 137.27453613 C-43.68677265 139.35217274 -41.59382685 141.42650627 -39.5 143.5 C-36.736583 146.2365815 -33.97666278 148.97662263 -31.21875 151.71875 C-30.28875183 152.63630066 -30.28875183 152.63630066 -29.33996582 153.5723877 C-25.59219632 157.29943872 -22.06492356 161.14762033 -18.64978027 165.18249512 C-16.9418057 167.06411061 -15.13483647 168.68262299 -13.1875 170.3125 C2.13320731 183.3545894 2.13320731 183.3545894 3.375 192.875 C2.8582642 197.18113165 1.47650968 199.42281935 -1 203 C-5.44095534 205.8132323 -9.92449125 205.87983746 -15 205 C-16.88243103 203.78941345 -16.88243103 203.78941345 -18.65209961 202.13256836 C-19.33940155 201.49431122 -20.02670349 200.85605408 -20.73483276 200.19845581 C-21.85609055 199.11022018 -21.85609055 199.11022018 -23 198 C-24.223134 196.81544724 -24.223134 196.81544724 -25.47097778 195.60696411 C-28.27104713 192.86145481 -31.0467914 190.09253732 -33.81640625 187.31640625 C-34.84180924 186.29167892 -35.86736046 185.26709989 -36.89305115 184.24266052 C-39.03018063 182.1069957 -41.16551609 179.96955792 -43.29956055 177.83081055 C-46.01475875 175.10991584 -48.73442333 172.3935369 -51.45546055 169.67848301 C-53.57042075 167.56716186 -55.68296207 165.45343325 -57.79481316 163.33900261 C-58.79586663 162.33728909 -59.79764385 161.33629823 -60.80020332 160.336092 C-65.84949263 155.29606029 -70.77294435 150.21984698 -75.41923523 144.80537415 C-77.95793737 141.90595021 -80.67701282 139.19911104 -83.4140625 136.48828125 C-83.99159271 135.91216599 -84.56912292 135.33605072 -85.16415405 134.74247742 C-86.98206461 132.93008518 -88.80343919 131.12122268 -90.625 129.3125 C-91.85179732 128.09073054 -93.07836153 126.86872695 -94.3046875 125.64648438 C-96.55666986 123.40260376 -98.80998637 121.16008256 -101.06494141 118.91918945 C-103.71531898 116.28480413 -106.35893746 113.64372669 -109 111 C-109.33 110.67 -109.66 110.34 -110 110 C-110.74718948 106.51076609 -110.68692459 103.49772462 -110 100 C-108.28789997 97.59207916 -108.28789997 97.59207916 -106.02571106 95.22619629 C-105.20517054 94.35884354 -104.38463001 93.49149078 -103.53922462 92.59785461 C-102.7012805 91.74056259 -101.86333637 90.88327057 -101 90 C-100.26667639 89.24071701 -99.53335278 88.48143402 -98.77780724 87.69914246 C-96.52359628 85.38785253 -94.24720542 83.10062211 -91.96362305 80.81835938 C-91.11041977 79.96179749 -90.25721649 79.1052356 -89.37815857 78.22271729 C-87.07050123 75.9072703 -84.76065397 73.59404041 -82.44942069 71.28216362 C-81.00233557 69.83436217 -79.55596702 68.38584872 -78.1098423 66.93708801 C-73.05677467 61.87481845 -68.00118176 56.81508722 -62.94311523 51.7578125 C-58.23789465 47.05319554 -53.53831449 42.34299493 -48.84126633 37.63021994 C-44.79281751 33.56870217 -40.74052942 29.51104232 -36.68522102 25.45637369 C-34.26950481 23.0409121 -31.85535771 20.62393232 -29.44507408 18.20304871 C-26.76455809 15.51277109 -24.07782406 12.82886044 -21.3894043 10.14648438 C-20.59505981 9.34652039 -19.80071533 8.5465564 -18.9822998 7.72235107 C-18.24936203 6.99360779 -17.51642426 6.2648645 -16.76127625 5.51403809 C-15.81092766 4.56287235 -15.81092766 4.56287235 -14.84138012 3.59249115 C-10.29349643 -0.34068074 -5.82355246 -0.82761057 0 0 Z " fill="#FDFDFE" transform="translate(337,407)"/>
<path d="M0 0 C3.99223126 2.65779613 7.50599972 5.72301837 11 9 C11.76828125 9.71671875 12.5365625 10.4334375 13.328125 11.171875 C15 13 15 13 15 15 C15.99 15.33 16.98 15.66 18 16 C19.55479622 17.57480049 19.55479622 17.57480049 21.20852661 19.5774231 C24.83661028 23.8500274 28.6865759 27.81469085 32.66357422 31.76123047 C33.3945079 32.49070389 34.12544159 33.22017731 34.87852478 33.97175598 C36.45097647 35.5404287 38.02458136 37.10794615 39.59923935 38.67440414 C42.08924076 41.15156254 44.57603494 43.63190126 47.06204224 46.11306763 C52.33021906 51.36986638 57.60233319 56.62270532 62.875 61.875 C69.00715168 67.98356167 75.13768472 74.09372969 81.2640419 80.20810318 C83.71777251 82.65533715 86.17448644 85.09954951 88.63131714 87.54367065 C90.12528901 89.03401241 91.61912201 90.52449338 93.11279297 92.01513672 C93.79950577 92.6966832 94.48621857 93.37822968 95.19374084 94.08042908 C95.81606094 94.70267868 96.43838104 95.32492828 97.07955933 95.96603394 C97.62262159 96.50687559 98.16568386 97.04771725 98.72520256 97.60494804 C101.24402403 100.36137562 101.53998265 103.12964901 101.44140625 106.81640625 C100.53669167 111.2919412 97.16008269 113.90292509 94 117 C92.7532407 118.27803138 91.50864371 119.55817396 90.265625 120.83984375 C88.90765395 122.22793737 87.54826139 123.61464166 86.1875 125 C85.51710693 125.68392822 84.84671387 126.36785645 84.15600586 127.07250977 C83.52057861 127.70858154 82.88515137 128.34465332 82.23046875 129 C81.65707764 129.5775 81.08368652 130.155 80.49291992 130.75 C79 132 79 132 77 132 C76.67 132.99 76.34 133.98 76 135 C74.3984375 136.578125 74.3984375 136.578125 72.375 138.25 C69.63140123 140.57375981 67.01328204 142.92880824 64.5 145.5 C62.19071353 147.85701441 59.81519808 150.05757549 57.30419922 152.19750977 C52.87467532 156.05054873 48.74953889 160.15755299 44.6328125 164.33984375 C43.07304506 165.91223675 41.51314552 167.48449871 39.953125 169.05664062 C37.52186969 171.5128712 35.09225729 173.9706879 32.66503906 176.4309082 C30.30443461 178.82152835 27.93780197 181.20604474 25.5703125 183.58984375 C24.84014923 184.33346664 24.10998596 185.07708954 23.35769653 185.84324646 C22.68294281 186.52137894 22.00818909 187.19951141 21.31298828 187.89819336 C20.7197879 188.49885117 20.12658752 189.09950897 19.51541138 189.71836853 C18 191 18 191 16 191 C16 191.66 16 192.32 16 193 C14.15089014 194.86318937 12.15460165 196.49667904 10.140625 198.1796875 C8.04813939 199.89866193 8.04813939 199.89866193 6.484375 201.5703125 C3.45078069 204.62134126 1.09182501 205.3588634 -3.0625 205.5 C-7.1222656 205.26836172 -9.90442975 204.81415477 -13 202 C-15.61525329 197.94184834 -16.70124748 194.80855413 -16 190 C-12.5420911 183.74147066 -7.30185587 179.04439576 -2.25 174.0625 C-1.38117187 173.19431641 -0.51234375 172.32613281 0.3828125 171.43164062 C4.03303569 167.8060811 7.68892058 164.25393405 11.59912109 160.90966797 C16.58679539 156.5719692 21.21460485 151.88268995 25.85931015 147.18528938 C27.46231757 145.56466763 29.06903557 143.94780739 30.67678833 142.33189392 C35.24101965 137.74338186 39.79931898 133.14900822 44.35351562 128.55053711 C47.15308049 125.72427042 49.95743332 122.90282959 52.76483536 120.08434868 C53.83128963 119.01167792 54.89584155 117.93711241 55.95846176 116.86064339 C57.43511203 115.36488533 58.91772053 113.87528917 60.40185547 112.38696289 C61.24376434 111.53759659 62.08567322 110.68823029 62.95309448 109.81312561 C65 108 65 108 67 108 C68.00861847 106.33146693 68.00861847 106.33146693 68 104 C66.23644378 101.75589297 64.522188 99.89111746 62.4855957 97.91796875 C61.88744553 97.31908844 61.28929535 96.72020813 60.67301941 96.10317993 C58.68555884 94.11921243 56.68094509 92.15356042 54.67578125 90.1875 C53.29279229 88.81383756 51.91090401 87.43906614 50.53007507 86.06323242 C46.88461915 82.43689643 43.224411 78.82580951 39.56097412 75.21765137 C35.84489414 71.55251252 32.1427269 67.87338243 28.43945312 64.1953125 C22.45012494 58.24998219 16.45224329 52.31344513 10.44338989 46.3878479 C8.96139386 44.92610948 7.48064194 43.46311 6 42 C5.2129216 41.25580811 4.4258432 40.51161621 3.61491394 39.74487305 C2 38 2 38 2 36 C1.10788818 35.59467041 1.10788818 35.59467041 0.19775391 35.18115234 C-1.98160555 34.00988584 -3.41921661 32.83870488 -5.1640625 31.1015625 C-6.01097656 30.25851562 -6.01097656 30.25851562 -6.875 29.3984375 C-7.4525 28.81320312 -8.03 28.22796875 -8.625 27.625 C-9.50285156 26.75875 -9.50285156 26.75875 -10.3984375 25.875 C-10.96046875 25.31039063 -11.5225 24.74578125 -12.1015625 24.1640625 C-12.61025879 23.65311035 -13.11895508 23.1421582 -13.64306641 22.61572266 C-16.97117732 18.65288746 -17.3863579 15.20835078 -17.24609375 10.18359375 C-16.89475764 7.06618284 -16.07503682 5.35170839 -14 3 C-9.67249352 0.08144912 -5.11475289 -1.53879745 0 0 Z " fill="#FDFDFE" transform="translate(698,407)"/>
<path d="M0 0 C2.625 0.375 2.625 0.375 5 1 C5.27972656 1.8444165 5.55945313 2.68883301 5.84765625 3.55883789 C12.14199272 22.54177749 18.50139649 41.50213703 24.9375 60.4375 C25.27232391 61.42393494 25.60714783 62.41036987 25.95211792 63.42669678 C29.54432099 74.003493 33.1778301 84.56235459 36.9453125 95.078125 C37.25463211 95.94450089 37.56395172 96.81087677 37.88264465 97.70350647 C39.33444093 101.76834709 40.79641021 105.82887563 42.27905273 109.88256836 C42.7919241 111.31088435 43.30439983 112.73934248 43.81640625 114.16796875 C44.26443604 115.39797607 44.71246582 116.6279834 45.17407227 117.89526367 C46.38203547 122.43610554 46.38203547 122.43610554 45 125 C40.87348046 128.15926589 37.23418711 128.4258089 32.2121582 128.37231445 C31.44410858 128.37596512 30.67605896 128.37961578 29.88473511 128.38337708 C27.35652275 128.3914564 24.82895641 128.37789837 22.30078125 128.36328125 C20.54151917 128.36276249 18.7822565 128.36328081 17.022995 128.36479187 C13.34198315 128.36470227 9.6611909 128.3542958 5.98022461 128.33618164 C1.25544478 128.31344478 -3.46901571 128.31296073 -8.19383526 128.31969929 C-11.82343907 128.32303494 -15.45296965 128.31641766 -19.08255959 128.30657005 C-20.82533193 128.30271454 -22.5681124 128.30157129 -24.31088829 128.3031559 C-26.74086522 128.30352545 -29.17042705 128.29093933 -31.6003418 128.2746582 C-32.32400436 128.27713562 -33.04766693 128.27961304 -33.79325867 128.28216553 C-38.77125146 128.22874854 -38.77125146 128.22874854 -41 126 C-40.63653954 121.28642793 -39.51193669 117.07618232 -37.98046875 112.62109375 C-37.7699437 112.00069214 -37.55941864 111.38029053 -37.34251404 110.74108887 C-36.87692232 109.36937129 -36.40881791 107.99850467 -35.9385376 106.62838745 C-34.59021681 102.69513684 -33.26573216 98.75388287 -31.94140625 94.8125 C-31.64268616 93.92400864 -31.34396606 93.03551727 -31.03619385 92.12010193 C-26.67930094 79.11502059 -22.49291503 66.05380196 -18.28888321 52.99870682 C-17.63204497 50.95937304 -16.97471743 48.92019763 -16.31723022 46.881073 C-15.26133408 43.60615794 -14.20629982 40.3309664 -13.15188408 37.05557442 C-12.54623317 35.17461359 -11.93999782 33.29384097 -11.33375549 31.41307068 C-9.57378214 25.94252931 -7.82733864 20.46915891 -6.13574219 14.97705078 C-5.85918793 14.08288956 -5.58263367 13.18872833 -5.29769897 12.26747131 C-4.79908904 10.64878233 -4.30569048 9.02847418 -3.8187561 7.40623474 C-2.22089167 2.22089167 -2.22089167 2.22089167 0 0 Z " fill="#015EDE" transform="translate(510,388)"/>
<path d="M0 0 C0.99 0.66 1.98 1.32 3 2 C1.50260417 3.20442708 0.00520833 4.40885417 -1.4921875 5.61328125 C-3.25292107 7.12270545 -3.25292107 7.12270545 -5 10 C-6.24034011 10.97748658 -7.51515336 11.91204717 -8.8125 12.8125 C-12.50241021 15.50209344 -15.10535799 18.45406353 -18 22 C-19.16795947 23.06353015 -20.35776013 24.10332122 -21.5625 25.125 C-27.375483 30.06770915 -32.64913674 35.56887379 -38 41 C-37.34 42.98 -36.68 44.96 -36 47 C-37.65 45.68 -39.3 44.36 -41 43 C-39.55419034 39.68386118 -37.75170208 37.50814272 -35.19287109 34.96582031 C-34.41221283 34.18531311 -33.63155457 33.40480591 -32.82723999 32.60064697 C-31.98448517 31.76821472 -31.14173035 30.93578247 -30.2734375 30.078125 C-29.41062164 29.21813904 -28.54780579 28.35815308 -27.65884399 27.47210693 C-24.90221971 24.7266769 -22.13872201 21.9882831 -19.375 19.25 C-17.50475143 17.38978217 -15.63495411 15.52911054 -13.765625 13.66796875 C-9.1823064 9.10670055 -4.59332522 4.55118989 0 0 Z " fill="#105ADD" transform="translate(300,469)"/>
<path d="M0 0 C0.66 0.33 1.32 0.66 2 1 C-4.27 7.27 -10.54 13.54 -17 20 C-16.34 21.98 -15.68 23.96 -15 26 C-16.65 24.68 -18.3 23.36 -20 22 C-18.51346494 18.53370165 -16.54277649 16.30977964 -13.8671875 13.671875 C-12.65869141 12.47304688 -12.65869141 12.47304688 -11.42578125 11.25 C-10.58402344 10.425 -9.74226563 9.6 -8.875 8.75 C-8.02550781 7.90953125 -7.17601562 7.0690625 -6.30078125 6.203125 C-4.20495077 4.13084317 -2.10459287 2.06337607 0 0 Z " fill="#0849D9" transform="translate(279,490)"/>
<path d="M0 0 C1.98 0 3.96 0 6 0 C2.90929089 3.1904094 -0.28921694 6.2467898 -3.5625 9.25 C-4.67818359 10.27867187 -4.67818359 10.27867187 -5.81640625 11.328125 C-7.96702962 12.97475613 -9.35532825 13.59220481 -12 14 C-11.29875 13.319375 -10.5975 12.63875 -9.875 11.9375 C-4.28618547 6.45685811 -4.28618547 6.45685811 0 0 Z " fill="#0852DC" transform="translate(281,778)"/>
<path d="M0 0 C0.66 0.33 1.32 0.66 2 1 C1.875 2.75 1.875 2.75 1 5 C-2.0625 7.25 -2.0625 7.25 -5 9 C-5.66 8.67 -6.32 8.34 -7 8 C-4.69 5.36 -2.38 2.72 0 0 Z " fill="#044CDB" transform="translate(798,274)"/>
<path d="M0 0 C0.66 0.33 1.32 0.66 2 1 C-0.31 3.31 -2.62 5.62 -5 8 C-5.66 7.34 -6.32 6.68 -7 6 C-4.69 4.02 -2.38 2.04 0 0 Z " fill="#1058DD" transform="translate(777,538)"/>
<path d="M0 0 C0.97608217 2.92824652 1.08226668 4.95613276 1 8 C0.01 8.33 -0.98 8.66 -2 9 C-1.125 2.25 -1.125 2.25 0 0 Z " fill="#044EDA" transform="translate(428,630)"/>
<path d="M0 0 C0.33 0.99 0.66 1.98 1 3 C-0.98 4.32 -2.96 5.64 -5 7 C-5.66 6.67 -6.32 6.34 -7 6 C-4.69 4.02 -2.38 2.04 0 0 Z " fill="#074FDA" transform="translate(177,151)"/>
</svg>
